<?xml version="1.0" encoding="UTF-8" standalone="no"?>
<svg
   version="1.1"
   width="656"
   height="580"
   id="svg6"
   sodipodi:docname="EJC_White_Clear.svg"
   inkscape:version="1.3.2 (091e20e, 2023-11-25, custom)"
   xmlns:inkscape="http://www.inkscape.org/namespaces/inkscape"
   xmlns:sodipodi="http://sodipodi.sourceforge.net/DTD/sodipodi-0.dtd"
   xmlns="http://www.w3.org/2000/svg"
   xmlns:svg="http://www.w3.org/2000/svg">
  <defs
     id="defs6" />
  <sodipodi:namedview
     id="namedview6"
     pagecolor="#ffffff"
     bordercolor="#000000"
     borderopacity="0.25"
     inkscape:showpageshadow="2"
     inkscape:pageopacity="0.0"
     inkscape:pagecheckerboard="0"
     inkscape:deskcolor="#d1d1d1"
     inkscape:zoom="0.71944444"
     inkscape:cx="326.64093"
     inkscape:cy="374.59459"
     inkscape:window-width="1920"
     inkscape:window-height="991"
     inkscape:window-x="-9"
     inkscape:window-y="-9"
     inkscape:window-maximized="1"
     inkscape:current-layer="svg6" />
  <path
     d="m 418,264 c 7.42908,2.32012 14.45676,5.27233 21.5625,8.4375 1.08475,0.4776 2.16949,0.9552 3.28711,1.44727 4.59071,2.03195 9.15746,4.08105 13.63867,6.3457 2.69848,1.35974 5.32062,2.56929 8.13672,3.64453 9.89387,3.87876 19.5804,8.19637 29.21094,12.68359 4.0957,1.86582 8.24422,3.58534 12.40625,5.29688 3.1234,1.29625 6.20762,2.66711 9.29297,4.05078 8.42693,3.73937 16.92827,7.31081 25.45312,10.82031 4.0285,1.70336 8.01778,3.49088 12.01172,5.27344 1.45289,0.64376 2.90601,1.287 4.35937,1.92969 6.86127,3.03873 13.71439,6.08663 20.51563,9.25781 4.97715,2.31394 10.00866,4.44419 15.08594,6.52734 3.2578,1.37766 6.45954,2.85046 9.66406,4.34766 4.59916,2.14627 9.22349,4.11046 13.94922,5.95703 2.49176,1.00714 4.92392,2.10259 7.36328,3.23047 7.48198,3.44664 15.09682,6.58269 22.69824,9.75439 3.12769,1.31709 6.24497,2.65877 9.36426,3.99561 0,19.8 0,39.6 0,60 -4.455,1.98 -4.455,1.98 -9,4 -1.7304,0.78897 -3.45978,1.58019 -5.1875,2.375 -7.32195,3.33275 -14.72791,6.46881 -22.13379,9.60937 -11.08679,4.70323 -22.11084,9.51356 -33.04394,14.56543 -5.06291,2.32863 -10.15562,4.50877 -15.34595,6.53858 -4.92682,1.96232 -9.75217,4.12823 -14.47632,6.53662 C 554,472 554,472 551.23828,472.91016 c -3.37847,1.13702 -6.59564,2.47885 -9.86328,3.90234 -5.55496,2.41356 -11.13705,4.74472 -16.75391,7.01172 -2.68688,1.20529 -5.10301,2.65435 -7.62109,4.17578 -1.35898,0.60017 -2.73546,1.16194 -4.125,1.6875 -13.79706,5.38916 -27.35753,11.36172 -40.89477,17.36743 -6.04496,2.67678 -12.11556,5.2735 -18.22999,7.78784 -2.8186,1.18599 -5.59839,2.43934 -8.37524,3.71973 -4.26839,1.96248 -8.57711,3.74983 -12.95313,5.45703 -3.19608,1.2939 -6.30571,2.75501 -9.41406,4.24609 C 421,529 421,529 417,529 c 0,-22.44 0,-44.88 0,-68 9.74765,-5.41536 9.74765,-5.41536 15.50781,-7.19922 8.38451,-2.69408 16.52471,-6.21002 24.68946,-9.49707 5.94984,-2.3842 11.94862,-4.62938 17.95507,-6.86621 5.63379,-2.09916 11.23992,-4.26992 16.84766,-6.4375 11.75365,-4.54318 11.75365,-4.54318 16.77734,-6.40234 7.80446,-2.89112 15.53642,-5.90133 23.2002,-9.14991 3.43329,-1.44164 6.86397,-2.7549 10.40527,-3.90869 4.94174,-1.61085 9.74041,-3.5218 14.55469,-5.47656 1.67578,-0.67578 3.35156,-1.35156 5.02734,-2.02734 0.81969,-0.33242 1.63937,-0.66484 2.48389,-1.00733 1.78764,-0.72019 3.57864,-1.43206 5.37207,-2.13769 1.35908,-0.53537 1.35908,-0.53537 2.74561,-1.08155 0.82572,-0.32299 1.65145,-0.64598 2.50219,-0.97876 1.90022,-0.67514 1.90022,-0.67514 2.9314,-1.82983 -3.66629,-1.43846 -7.3331,-2.87559 -11,-4.3125 -1.02996,-0.40412 -2.05992,-0.80824 -3.12109,-1.22461 -4.45076,-1.74345 -8.90056,-3.48036 -13.38672,-5.13086 -2.60065,-0.99197 -4.94498,-1.99256 -7.36719,-3.33203 -3.7123,-1.91393 -7.4368,-3.03096 -11.44531,-4.16406 -3.89863,-1.21619 -7.59215,-2.84346 -11.34375,-4.44922 C 516.58924,372.82925 512.80538,371.40615 509,370 c -5.70581,-2.11458 -11.33958,-4.34885 -16.94531,-6.71875 -9.17465,-3.84819 -18.45005,-7.44712 -27.74219,-11 -3.6158,-1.39856 -7.21552,-2.83521 -10.8125,-4.28125 -7.99498,-3.21251 -16.02899,-6.31851 -24.09375,-9.35156 -1.74797,-0.66129 -1.74797,-0.66129 -3.53125,-1.33594 -1.05445,-0.39574 -2.10891,-0.79148 -3.19531,-1.19922 C 420,335 420,335 417,333 c -0.36749,-2.81532 -0.36749,-2.81532 -0.35645,-6.45337 -0.002,-0.66193 -0.004,-1.32386 -0.006,-2.00584 -0.003,-2.19226 0.0155,-4.38378 0.0345,-6.57595 0.003,-1.51932 0.005,-3.03864 0.006,-4.55796 0.005,-3.1853 0.019,-6.37034 0.0412,-9.55556 0.0283,-4.09154 0.0392,-8.18289 0.0437,-12.27452 0.004,-3.13716 0.014,-6.27428 0.0259,-9.41142 0.006,-1.50915 0.0105,-3.0183 0.0143,-4.52746 0.007,-2.10472 0.0205,-4.20928 0.0363,-6.31395 0.007,-1.19976 0.0137,-2.39951 0.0207,-3.63563 C 417,265 417,265 418,264 Z"
     fill="#fefdfd"
     id="path1" />
  <path
     d="m 239,265 c 0,22.44 0,44.88 0,68 -7.81937,4.46821 -7.81937,4.46821 -11.8125,5.8125 -4.98733,1.73977 -9.89963,3.62553 -14.8125,5.5625 -6.06228,2.38348 -12.15431,4.62723 -18.3125,6.75 -4.57195,1.57897 -9.00513,3.22286 -13.375,5.3125 -5.96627,2.83672 -12.17731,4.89549 -18.41528,7.04224 -6.8473,2.35777 -13.54576,4.94159 -20.21363,7.76635 -5.11804,2.15868 -10.19702,4.19146 -15.48437,5.89063 C 110.40555,382.55899 93.25238,388.37381 78,396 c 6.92672,3.21315 13.89399,6.20942 21,9 1.79536,0.72055 3.59069,1.44116 5.3855,2.16309 8.1084,3.25856 16.23777,6.46473 24.42846,9.51171 5.34416,1.98822 10.64389,4.07776 15.93604,6.2002 0.8818,0.35296 1.7636,0.70592 2.67212,1.06958 4.68657,1.88022 9.36049,3.78525 14.01538,5.74292 5.00951,2.10483 10.06734,4.06106 15.14453,5.99609 4.29179,1.65296 8.5581,3.36702 12.82471,5.0835 4.07932,1.63741 8.17333,3.22997 12.28076,4.79541 5.13112,1.96098 10.19919,4.04341 15.25781,6.18359 4.30505,1.76716 8.67168,3.36081 13.04688,4.94532 3.42481,1.49001 6.10528,2.93844 9.00781,5.30859 0.72153,3.0246 0.72153,3.0246 0.68115,6.60449 0.001,0.98111 0.001,0.98111 0.003,1.98204 -0.004,2.15468 -0.0508,4.30621 -0.0979,6.46034 -0.0112,1.49643 -0.0197,2.99287 -0.0257,4.48932 -0.0229,3.933 -0.0818,7.86466 -0.14822,11.79712 -0.0615,4.01502 -0.0888,8.03025 -0.11902,12.0456 C 239.22868,513.25322 239.12632,521.12644 239,529 229.14341,527.46556 220.3906,522.74934 211.43457,518.52148 206.36078,516.13719 201.22099,514.03317 196,512 c -7.35112,-2.95506 -14.5455,-6.16347 -21.70483,-9.54956 -3.1452,-1.47849 -6.27534,-2.89616 -9.54517,-4.07544 -3.96125,-1.45246 -7.73339,-3.15623 -11.5625,-4.92188 -3.7118,-1.69214 -7.44717,-3.32529 -11.1875,-4.95312 -4.51552,-1.96739 -9.02137,-3.94954 -13.5,-6 -8.77043,-4.00821 -17.57167,-8.00856 -26.5625,-11.5 -4.95722,-1.93759 -9.73414,-4.22384 -14.54224,-6.49951 -3.17839,-1.49557 -6.33962,-2.93519 -9.64526,-4.12549 -3.84891,-1.41127 -7.50002,-3.06681 -11.21875,-4.78516 -5.60029,-2.52137 -11.26019,-4.90407 -16.9187,-7.2915 -3.98105,-1.69109 -7.90861,-3.41184 -11.75708,-5.38818 -3.21681,-1.6443 -6.46928,-2.94153 -9.86426,-4.16846 -3.35144,-1.24837 -6.60168,-2.72147 -9.86621,-4.1792 C 12.13363,431.891 6.09898,429.43959 0,427 c 0,-19.8 0,-39.6 0,-60 12.43478,-5.65217 12.43478,-5.65217 17.9375,-8 1.17305,-0.50145 2.34609,-1.00289 3.55469,-1.51953 4.28013,-1.80643 8.57867,-3.56594 12.88672,-5.30469 C 37.06602,350.97039 39.47946,349.51796 42,348 c 1.50489,-0.66247 3.02671,-1.28771 4.5625,-1.875 0.87398,-0.3416 1.74797,-0.6832 2.64844,-1.03516 C 50.13133,344.73019 51.05172,344.37055 52,344 c 7.30359,-2.93576 14.45511,-6.11815 21.5686,-9.48145 4.25134,-1.99921 8.53726,-3.7988 12.91578,-5.49511 4.13994,-1.68427 8.16227,-3.62076 12.21093,-5.51172 4.13845,-1.89312 8.33033,-3.63351 12.53906,-5.36328 2.44045,-1.01341 4.85575,-2.06486 7.26563,-3.14844 3.22971,-1.44879 6.47923,-2.83392 9.75,-4.1875 12.20716,-5.06151 24.40977,-10.18043 36.39844,-15.74219 4.20242,-1.91273 8.46267,-3.69202 12.71093,-5.5 1.11891,-0.47695 2.23782,-0.9539 3.39063,-1.44531 1.10859,-0.4718 2.21719,-0.94359 3.35937,-1.42969 3.03093,-1.30565 6.03159,-2.67103 9.03125,-4.04687 7.32761,-3.3427 14.75993,-6.43071 22.1875,-9.54297 1.08797,-0.45762 2.17594,-0.91524 3.29688,-1.38672 1.06219,-0.44602 2.12438,-0.89203 3.21875,-1.35156 4.02548,-1.74371 7.97548,-3.63315 11.91406,-5.56446 C 236,264 236,264 239,265 Z"
     fill="#fefefd"
     id="path2" />
  <path
     d="m 349.5957,219.87061 c 1.46657,-0.005 1.46657,-0.005 2.96277,-0.01 1.06352,0.002 2.12703,0.004 3.22278,0.006 1.62573,-0.001 1.62573,-0.001 3.2843,-0.003 2.29667,-6.8e-4 4.59334,0.001 6.89001,0.005 3.52918,0.005 7.05823,6e-5 10.58741,-0.006 2.22526,6.6e-4 4.45052,0.002 6.67578,0.004 1.06351,-0.002 2.12703,-0.004 3.22277,-0.006 0.97772,0.003 1.95543,0.006 2.96277,0.01 0.86525,8e-4 1.73049,0.002 2.62195,0.002 C 394,220 394,220 395,221 c -0.73644,10.67828 -3.03621,21.27944 -6.26172,31.46875 -0.82976,2.84488 -1.4486,5.692 -2.05078,8.59375 -2.06276,9.92701 -4.4997,19.76412 -6.88477,29.61768 -1.29485,5.35506 -2.58003,10.71244 -3.86523,16.06982 -0.37367,1.55667 -0.37367,1.55667 -0.75489,3.14478 C 372.77538,319.92676 370.38592,329.96294 368,340 c -2.90829,12.23453 -5.82985,24.46575 -8.76709,36.69336 -1.60503,6.684 -3.20382,13.36944 -4.79541,20.05664 -0.20021,0.83991 -0.40042,1.67981 -0.60669,2.54517 -1.06875,4.48701 -2.12987,8.9757 -3.18238,13.46655 -0.22357,0.94972 -0.44714,1.89944 -0.67749,2.87793 -0.42627,1.81132 -0.8504,3.62314 -1.27197,5.43555 -1.0376,4.39954 -2.26125,8.63622 -3.69897,12.9248 -0.34859,1.72226 -0.66183,3.45209 -0.9375,5.1875 -0.81513,4.72517 -1.96891,9.25417 -3.27735,13.86329 -0.87785,3.29742 -1.58938,6.60875 -2.28515,9.94921 -0.87887,4.21126 -1.83107,8.36004 -3,12.5 -1.08305,3.85454 -1.99704,7.70507 -2.8125,11.625 -3.04279,14.50447 -6.67071,28.88518 -10.30323,43.25123 C 318.22491,546.83341 314.32942,563.35287 311,580 c -17.16,0 -34.32,0 -52,0 1.3128,-6.56403 2.67885,-13.06295 4.25,-19.5625 0.21326,-0.88985 0.42651,-1.77971 0.64624,-2.69653 1.20189,-5.01143 2.41293,-10.02064 3.62329,-15.03003 0.51459,-2.13275 1.02891,-4.26556 1.54297,-6.39844 0.25765,-1.06863 0.5153,-2.13726 0.78076,-3.23828 1.40798,-5.86642 2.75943,-11.73956 4.03174,-17.63672 2.15661,-9.97435 4.70192,-19.85647 7.22021,-29.74438 1.88025,-7.40988 3.61273,-14.83481 5.18335,-22.31763 1.16702,-5.46029 2.47321,-10.88571 3.78394,-16.31299 0.25588,-1.07056 0.51175,-2.14113 0.77539,-3.24414 2.06931,-8.60175 2.06931,-8.60175 3.28711,-12.74023 0.79667,-2.80257 1.35459,-5.51673 1.8125,-8.39063 0.63491,-3.66452 1.44083,-7.14213 2.5625,-10.6875 1.02596,-3.26582 1.81146,-6.43657 2.375,-9.8125 2.0155,-11.84107 5.10254,-23.53995 8.25,-35.125 1.51459,-5.58356 2.78022,-11.17687 3.95703,-16.83984 1.22346,-5.74376 2.61113,-11.4498 3.98047,-17.16016 0.25765,-1.07878 0.5153,-2.15756 0.78076,-3.26904 2.06986,-8.59698 2.06986,-8.59698 3.28174,-12.71533 0.79667,-2.80257 1.35459,-5.51673 1.8125,-8.39062 0.63491,-3.66453 1.44083,-7.14214 2.5625,-10.6875 1.05222,-3.34513 1.84833,-6.60569 2.4375,-10.0625 2.02555,-11.83786 5.16937,-23.45092 8.27221,-35.04297 1.55891,-5.87566 2.87153,-11.76535 4.10279,-17.71875 3.31211,-15.29969 3.31211,-15.29969 9.2832,-15.30518 z"
     fill="#fefefe"
     id="path3" />
  <path
     d="m 371,0 c 3.84445,3.2880172 5.61081,7.0411697 7.5,11.625 0.30116,0.711321 0.60231,1.422642 0.9126,2.155518 0.87235,2.069198 1.73097,4.143653 2.5874,6.219482 0.43055,1.022227 0.86109,2.044453 1.30469,3.097656 C 384.9485,27.075196 386.24066,30.749171 387,35 c 4.2655,1.254559 6.95637,0.838011 11,-1 0.33,-0.99 0.66,-1.98 1,-3 2.17969,-1.605469 2.17969,-1.605469 4.875,-3.1875 0.8843,-0.529805 1.76859,-1.059609 2.67969,-1.605469 C 409,25 409,25 412,25 c -0.76257,6.536282 -1.78423,13.011031 -2.875,19.5 -0.17636,1.057192 -0.35272,2.114385 -0.53442,3.203613 C 407.56961,53.775837 406.48559,59.830477 405.3125,65.875 404.21825,71.572219 403.40346,77.212446 403,83 c 4.12356,-2.170296 6.53422,-4.578528 9.375,-8.25 3.20178,-4.039577 6.47741,-7.748798 10.19531,-11.3125 1.58529,-1.517606 1.58529,-1.517606 3.17969,-3.875 0.4125,-0.515625 0.825,-1.03125 1.25,-1.5625 0.99,0 1.98,0 3,0 0.13277,1.059609 0.26555,2.119219 0.40234,3.210937 0.1782,1.388046 0.35659,2.776065 0.53516,4.164063 0.087,0.698672 0.17402,1.397344 0.26367,2.117187 C 431.66318,71.367836 431.66318,71.367836 433,75 440.30056,74.501844 447.3214,73.186158 454.48047,71.699219 458.3204,70.936347 462.1079,70.397153 466,70 c -0.56624,4.6059 -1.83481,8.155996 -3.875,12.3125 -5.16561,9.950985 -5.16561,9.950985 -5.125,20.6875 1.26457,0.41572 1.26457,0.41572 2.55469,0.83984 1.0957,0.36223 2.1914,0.72446 3.32031,1.09766 1.09055,0.35965 2.18109,0.7193 3.30469,1.08984 C 469,107 469,107 471,108 c -0.33,0.99 -0.66,1.98 -1,3 -0.66,0 -1.32,0 -2,0 0,0.66 0,1.32 0,2 -2.08203,1.4375 -2.08203,1.4375 -4.8125,3 -2.78895,1.60978 -5.50658,3.21272 -8.1875,5 -0.99,0 -1.98,0 -3,0 0,0.66 0,1.32 0,2 -1.87109,1.29688 -1.87109,1.29688 -4.4375,2.75 -3.47021,2.01164 -6.8633,4.06736 -10.1875,6.3125 -5.67853,3.83251 -11.48448,7.44 -17.375,10.9375 0.2515,6.13667 1.06065,10.68195 4.07812,16.03906 1.52765,3.24948 1.66779,6.40365 1.92188,9.96094 -8.40202,-0.53346 -16.30743,-2.39287 -24.45068,-4.38672 -4.85953,-1.16904 -9.73668,-2.26153 -14.61182,-3.36328 -0.98259,-0.22269 -1.96518,-0.44537 -2.97754,-0.6748 C 381.64012,160.0495 379.32013,159.52443 377,159 c 0.15854,0.57523 0.31709,1.15046 0.48044,1.74312 0.49932,2.16896 0.71718,4.14786 0.83255,6.36699 0.0432,0.7973 0.0864,1.5946 0.13089,2.41606 0.0417,0.85117 0.0835,1.70234 0.12643,2.5793 0.0453,0.87981 0.0907,1.75962 0.13742,2.66609 0.0944,1.85494 0.18672,3.70998 0.27713,5.56511 0.14015,2.85106 0.29016,5.70149 0.44092,8.552 0.0904,1.8014 0.1803,3.60284 0.26953,5.4043 0.0458,0.85724 0.0915,1.71448 0.1387,2.5977 0.0953,2.03497 0.13633,4.07235 0.16599,6.10933 -1,1 -1,1 -4.125,1.13281 -1.27875,-0.003 -2.5575,-0.005 -3.875,-0.008 -1.27875,0.003 -2.5575,0.005 -3.875,0.008 C 365,204 365,204 364,203 c -0.65227,-9.32968 0.39973,-18.87023 1,-28.1875 0.0967,-1.53969 0.19302,-3.07941 0.28906,-4.61914 0.23341,-3.73135 0.471,-7.46242 0.71094,-11.19336 -0.5576,0.13575 -1.1152,0.27151 -1.6897,0.41138 -10.32738,2.50679 -20.63601,4.95539 -31.08374,6.91284 -3.3273,0.65417 -3.3273,0.65417 -6.92578,1.75 C 323.02767,168.99224 320.378,169.16478 317,169 c 0.42242,-5.06907 1.63731,-8.60448 4.00781,-13.08594 1.79598,-3.46469 2.95919,-6.56106 3.05469,-10.47656 -2.29664,-5.26875 -8.36895,-7.61359 -13.15332,-10.33325 -3.28528,-1.90017 -6.50402,-3.90479 -9.72168,-5.91675 -0.70069,-0.43723 -1.40137,-0.87447 -2.12329,-1.32495 -4.71668,-2.96348 -9.28953,-6.07778 -13.8064,-9.33911 -3.03982,-2.05109 -6.24419,-3.69085 -9.54297,-5.28516 C 274,112 274,112 273.25391,109.85547 273.17012,109.24316 273.08633,108.63086 273,108 c 4.25288,-2.28203 8.34559,-3.74689 13,-5 0.99,-0.495 0.99,-0.495 2,-1 -0.57349,-4.260199 -1.59492,-7.814978 -3.3125,-11.75 -0.44344,-1.036406 -0.88688,-2.072812 -1.34375,-3.140625 C 282.90031,86.083281 282.45687,85.057187 282,84 c -0.7798,-1.829536 -1.55144,-3.662587 -2.3125,-5.5 -0.32613,-0.773438 -0.65227,-1.546875 -0.98828,-2.34375 C 278,74 278,74 278,70 c 0.53625,0.10957 1.0725,0.219141 1.625,0.332031 2.79003,0.56443 5.58245,1.116148 8.375,1.667969 0.63728,0.128423 1.27456,0.256846 1.93115,0.38916 2.08418,0.418624 4.17007,0.827833 6.25635,1.23584 0.66451,0.13511 1.32902,0.27022 2.01367,0.409424 C 302.67076,74.89716 306.3271,75 311,75 c 0.66,-5.61 1.32,-11.22 2,-17 4.46549,1.116373 4.46549,1.116373 6.875,4.125 3.69086,4.40965 7.53316,8.654812 11.4375,12.875 0.6231,0.683364 1.2462,1.366729 1.88818,2.070801 0.58991,0.636636 1.17982,1.273271 1.7876,1.929199 0.5315,0.5775 1.06299,1.155 1.6106,1.75 C 337.93579,82.221906 337.93579,82.221906 340,82 338.99312,70.500377 337.2949,59.229729 334.9375,47.9375 333.34023,40.272642 332.28612,32.83974 332,25 c 3.34984,0.629043 5.58479,1.878932 8.375,3.8125 0.78504,0.534961 1.57008,1.069922 2.37891,1.621094 1.34832,0.94031 2.69136,1.88837 4.02343,2.851562 C 349.93875,35.529514 350.93625,36 355,36 c 0.26812,-0.845625 0.53625,-1.69125 0.8125,-2.5625 1.83284,-5.305601 4.07855,-10.258642 6.625,-15.25 2.16454,-4.263884 3.98092,-8.5861234 5.66797,-13.0585938 C 369,3 369,3 371,0 Z"
     fill="#fefefe"
     id="path4" />
  <path
     d="m 182,504 c 7.66795,2.33938 14.77137,5.54769 22,9 -2.75291,1.08009 -3.93531,1.02054 -6.80469,0.10937 -1.0132,-0.44859 -2.0264,-0.89718 -3.07031,-1.35937 -1.05445,-0.46277 -2.10891,-0.92555 -3.19531,-1.40234 C 187.91388,508.96038 184.93549,507.54929 182,506 c 0,-0.66 0,-1.32 0,-2 z"
     fill="#ebd8d4"
     id="path5" />
  <path
     d="m 466,70 c -0.875,5.75 -0.875,5.75 -2,8 -0.66,0 -1.32,0 -2,0 0.66,-1.98 1.32,-3.96 2,-6 -2.31,0.33 -4.62,0.66 -7,1 1,-2 1,-2 2.8125,-2.625 C 462,70 462,70 466,70 Z"
     fill="#f7efed"
     id="path6" />
</svg>
