<svg xmlns="http://www.w3.org/2000/svg" width="835" height="708" viewBox="0 0 835 708" version="1.1"><path d="M 190.250 100.717 C 188.463 100.942, 187 101.447, 187 101.839 C 187 102.231, 184.979 103.440, 182.509 104.526 C 180.040 105.612, 178.015 107.084, 178.009 107.798 C 178.004 108.512, 176.875 110.138, 175.500 111.412 C 174.125 112.687, 173 114.428, 173 115.281 C 173 116.135, 172.438 117.021, 171.750 117.250 C 170.756 117.581, 170.447 164.325, 170.239 345.583 C 169.996 558.394, 170.092 573.814, 171.687 578.250 C 172.626 580.862, 173.756 583, 174.198 583 C 174.639 583, 175 583.603, 175 584.339 C 175 585.823, 182.353 593, 183.873 593 C 184.401 593, 184.988 593.463, 185.176 594.029 C 186.067 596.700, 202.143 597.035, 317 596.771 L 435.500 596.500 435.755 500.764 L 436.010 405.028 403.755 404.764 L 371.500 404.500 371.238 367.250 L 370.976 330 403.374 330 L 435.772 330 436.258 292.250 C 436.654 261.515, 437.047 253.422, 438.372 248.701 C 439.267 245.512, 440 241.826, 440 240.510 C 440 239.195, 440.399 237.871, 440.887 237.570 C 441.374 237.269, 442.070 235.442, 442.432 233.511 C 442.794 231.580, 443.520 230, 444.045 230 C 444.570 230, 445 229.167, 445 228.149 C 445 225.973, 449.155 217.855, 452.590 213.317 C 453.916 211.566, 455 209.850, 455 209.503 C 455 208.267, 471.026 193.127, 472.995 192.502 C 474.098 192.152, 475 191.446, 475 190.933 C 475 190.420, 475.675 190, 476.500 190 C 477.325 190, 478 189.637, 478 189.192 C 478 188.748, 479.912 187.551, 482.250 186.531 C 484.587 185.512, 486.725 184.405, 487 184.072 C 487.475 183.495, 493.606 181.564, 499 180.292 C 500.375 179.967, 501.725 179.374, 502 178.973 C 502.999 177.516, 518.865 175.694, 534.500 175.241 C 548.504 174.835, 557.795 175.274, 584.750 177.616 L 591 178.159 591 211.580 L 591 245 569.336 245 C 553.122 245, 545.450 245.426, 538.836 246.694 C 533.976 247.626, 530 248.751, 530 249.194 C 530 249.637, 529.212 250.007, 528.250 250.016 C 526.231 250.034, 520 255.219, 520 256.882 C 520 257.497, 519.550 258, 519 258 C 518.450 258, 517.997 258.563, 517.994 259.250 C 517.990 259.938, 517.240 261.850, 516.327 263.500 C 514.906 266.066, 514.601 271.093, 514.221 298.250 L 513.776 330 550.888 330 C 585.579 330, 587.998 330.114, 587.967 331.750 C 587.949 332.712, 587.486 336.650, 586.939 340.500 C 586.391 344.350, 585.520 351.325, 585.003 356 C 584.486 360.675, 583.329 369.675, 582.431 376 C 581.533 382.325, 580.472 390.650, 580.073 394.500 C 578.870 406.090, 582.443 405, 545.643 405 L 513.500 405 513.788 499.750 C 513.946 551.862, 514.269 595.063, 514.506 595.750 C 514.845 596.732, 528.386 596.999, 577.719 596.994 C 637.670 596.989, 652.027 596.419, 652.829 594.012 C 653.015 593.456, 653.789 593, 654.549 593 C 656.416 593, 661.201 588.205, 663.569 583.961 C 664.631 582.057, 665.950 580.179, 666.500 579.787 C 667.684 578.942, 668.930 122.691, 667.750 122.167 C 667.337 121.983, 667 120.746, 667 119.417 C 667 118.087, 666.550 117, 666 117 C 665.450 117, 665 116.100, 665 115 C 665 113.900, 664.559 113, 664.019 113 C 663.480 113, 662.756 111.875, 662.411 110.500 C 662.066 109.125, 661.265 108, 660.631 108 C 659.998 108, 658.337 106.988, 656.940 105.750 C 650.547 100.084, 669.222 100.508, 421.500 100.404 C 296.100 100.351, 192.037 100.492, 190.250 100.717" stroke="none" fill="#fbfbfb" fill-rule="evenodd"/></svg>