<svg xmlns="http://www.w3.org/2000/svg" width="4322" height="4320" viewBox="0 0 4322 4320" version="1.1"><path d="M 1916 1.084 C 1652.633 2.472, 1532.659 5.293, 1259.500 16.519 C 1174.785 20.001, 1152.690 21.456, 1107 26.563 C 912.551 48.297, 716.001 114.203, 565 208.301 C 410.356 304.671, 290.229 430.300, 196.674 593.500 C 181.942 619.198, 152.436 677.561, 140.768 704.082 C 76.233 850.770, 39.502 1013.752, 27.538 1206.500 C 24.242 1259.603, 18.532 1411.904, 14.922 1543 C 12.399 1634.624, 10.043 2449.247, 11.882 2594.500 C 14.179 2775.979, 18.218 2920.055, 24.542 3046 C 30.538 3165.422, 42.489 3265.729, 61.597 3357 C 116.735 3620.372, 233.999 3831.224, 417 3996.051 C 582.163 4144.812, 788.220 4238.536, 1041.035 4279.890 C 1218.895 4308.984, 1387.807 4316.013, 1908.453 4315.990 C 2380.743 4315.969, 2934.673 4312.500, 3026.500 4308.988 C 3198.716 4302.402, 3332.027 4284.113, 3455.500 4250.133 C 3638.535 4199.761, 3792.838 4117.440, 3925 3999.652 C 3943.275 3983.365, 3993.624 3932.915, 4009.749 3914.734 C 4132.970 3775.799, 4213.900 3625.034, 4263.455 3442.099 C 4280.729 3378.331, 4294.942 3301.830, 4302.953 3229.500 C 4308.241 3181.753, 4315.474 3088.733, 4319.980 3010.500 C 4321.972 2975.932, 4321.997 2965.452, 4321.997 2162 C 4321.997 1367.171, 4321.952 1347.467, 4320.018 1303.500 C 4317.569 1247.814, 4316.452 1227.765, 4313.916 1194 C 4307.289 1105.763, 4295.200 1022.070, 4277.373 941 C 4218.700 674.194, 4092.032 459.244, 3898.372 297.859 C 3843.588 252.205, 3778.461 207.587, 3716.388 173.185 C 3584.645 100.169, 3435.288 53.113, 3268.500 32.072 C 3194.509 22.737, 3032.630 12.136, 2886 7.022 C 2726.856 1.471, 2317.739 -1.033, 1916 1.084 M 1714 391.997 C 1549.818 394.219, 1390.296 398.872, 1284.500 404.525 C 1187.149 409.726, 1098.253 421.719, 1020.500 440.140 C 906.184 467.223, 801.420 516.037, 717.665 581.245 C 668.754 619.325, 625.747 663.192, 588.004 713.500 C 496.525 835.433, 444.178 979.947, 426.090 1160.500 C 419.305 1228.225, 411.015 1398.247, 406.977 1552.500 C 403.908 1669.742, 403.174 1999.523, 404.988 2446.500 C 406.002 2696.320, 406.799 2768.666, 409.520 2858 C 410.316 2884.125, 411.651 2930.025, 412.487 2960 C 416.089 3089.136, 422.983 3166.861, 438.121 3249 C 455.789 3344.864, 481.466 3424.275, 518.472 3497.500 C 546.554 3553.066, 575.788 3596.942, 615.415 3643 C 634.810 3665.543, 671.522 3701.324, 696 3721.543 C 814.935 3819.784, 964.987 3880.617, 1141 3901.954 C 1218.511 3911.350, 1398.076 3919.604, 1647.500 3925.236 C 1720.591 3926.886, 2114.128 3926.867, 2247 3925.206 C 2300.625 3924.536, 2416.725 3923.538, 2505 3922.988 C 3001.409 3919.895, 3108.171 3915.791, 3233 3895.006 C 3332.481 3878.441, 3420.483 3852.594, 3492.249 3818.863 C 3600.340 3768.057, 3699.841 3683.724, 3770.087 3583.376 C 3843.157 3478.994, 3888.883 3354.603, 3911.016 3200 C 3922.811 3117.607, 3928.134 3039.472, 3931.999 2892 C 3932.554 2870.825, 3933.467 2839.550, 3934.028 2822.500 C 3936.717 2740.718, 3937.153 2713.962, 3937.683 2598 C 3938.787 2356.529, 3932.488 1446.808, 3928.983 1341.500 C 3925.628 1240.718, 3918.141 1160.257, 3905.394 1088 C 3880.685 947.942, 3841.951 842.185, 3782.512 752.500 C 3719.996 658.170, 3640.421 582.799, 3546 528.480 C 3429.822 461.645, 3291.185 423.453, 3112.500 409.060 C 3032.252 402.596, 2838.585 395.626, 2666 392.990 C 2583.050 391.724, 1794.945 390.901, 1714 391.997 M 3308 747.664 C 3242.165 752.268, 3183.143 778.852, 3137.459 824.477 C 3097.251 864.634, 3072.924 913.546, 3064.334 971.500 C 3061.828 988.407, 3061.861 1025.791, 3064.397 1042.500 C 3074.970 1112.177, 3112.321 1174.590, 3168.582 1216.593 C 3249.933 1277.326, 3356.083 1285.655, 3446 1238.362 C 3496.641 1211.726, 3539.337 1165.513, 3561.822 1113 C 3589.076 1049.350, 3590.711 978.498, 3566.429 913.327 C 3536.938 834.175, 3468.169 773.815, 3385.500 754.523 C 3359.584 748.476, 3331.694 746.007, 3308 747.664 M 2116 1051.665 C 2063.008 1054.506, 2027.978 1058.180, 1984 1065.509 C 1806.287 1095.127, 1637.079 1169.446, 1493.579 1280.910 C 1343.227 1397.697, 1224.575 1551.419, 1150.029 1726 C 1083.440 1881.948, 1053.393 2053.327, 1063.068 2222 C 1075.496 2438.685, 1151.181 2646.159, 1281.395 2820.500 C 1466.536 3068.379, 1745.270 3228.851, 2049 3262.423 C 2117.744 3270.022, 2189.483 3271.233, 2258 3265.951 C 2544.198 3243.889, 2814.358 3107.935, 3006.064 2889.500 C 3058.663 2829.566, 3105.093 2763.789, 3143.754 2694.432 C 3278.496 2452.713, 3316.973 2166.882, 3251.033 1897.500 C 3207.473 1719.546, 3122.250 1558.392, 2997.459 1418 C 2980.448 1398.862, 2933.588 1351.975, 2913.537 1334.029 C 2762.898 1199.207, 2585.522 1109.970, 2391.771 1071.530 C 2338.335 1060.928, 2289.913 1054.955, 2233.500 1052.004 C 2216.750 1051.128, 2130.650 1050.879, 2116 1051.665 M 2124 1443.136 C 1997.167 1451.762, 1875.244 1493.710, 1770.500 1564.759 C 1709.065 1606.431, 1654.505 1657.204, 1608.514 1715.500 C 1526.658 1819.259, 1473.759 1947.433, 1459.524 2076.500 C 1456.470 2104.197, 1455.932 2112.985, 1455.334 2145 C 1454.507 2189.208, 1456.539 2222.667, 1462.561 2264 C 1503.636 2545.931, 1710.470 2778.040, 1986.500 2851.964 C 2078.725 2876.663, 2178.264 2882.345, 2275 2868.430 C 2476.729 2839.414, 2657.572 2724.304, 2770.551 2553 C 2801.693 2505.782, 2827.294 2454.904, 2846.417 2402.229 C 2895.067 2268.220, 2902.327 2119.584, 2867.007 1980.689 C 2823.536 1809.744, 2716.003 1659.009, 2567.420 1560.742 C 2462.217 1491.165, 2344.019 1451.436, 2217.170 1443.017 C 2199.294 1441.831, 2142.116 1441.903, 2124 1443.136" stroke="none" fill="#fffcfc" fill-rule="evenodd"/><path d="" stroke="none" fill="#fcfcfc" fill-rule="evenodd"/></svg>