<svg xmlns="http://www.w3.org/2000/svg" width="1067" height="1067" viewBox="0 0 1067 1067" version="1.1"><path d="M 374 334.626 C 361.708 336.998, 350.895 343.497, 343.850 352.746 C 337.370 361.252, 334.801 368.451, 334.232 379.687 C 333.691 390.373, 335.858 399.262, 340.963 407.291 C 350.994 423.072, 370.493 432.022, 388.418 429.072 C 407.178 425.986, 421.769 413.446, 427.127 395.807 C 429.874 386.764, 429.411 373.367, 426.052 364.676 C 421.222 352.181, 410 341.301, 397.500 336.996 C 391.595 334.962, 378.896 333.681, 374 334.626 M 617.450 461.390 C 601.757 464.400, 590.226 469.172, 578.430 477.539 C 571.294 482.600, 562.126 492.223, 558.429 498.531 C 556.988 500.989, 555.403 503, 554.905 503 C 554.399 503, 554 495.073, 554 485 L 554 467 514.500 467 L 475 467 475 600 L 475 733 516.500 733 L 558 733 558 658.631 C 558 579.029, 558.237 574.540, 563.139 561.295 C 570.921 540.270, 589.863 529.910, 614.797 533.041 C 633.154 535.346, 643.367 545.855, 648.772 568 C 650.134 573.583, 650.411 585.675, 650.734 653.750 L 651.110 733 692.055 733 L 733 733 733 649.174 C 733 597.315, 732.593 561.182, 731.934 554.424 C 726.537 499.131, 705.292 471.212, 661.964 462.477 C 651.252 460.317, 626.228 459.706, 617.450 461.390 M 340 600 L 340 733 381.500 733 L 423 733 423 600 L 423 467 381.500 467 L 340 467 340 600" stroke="none" fill="#fbfbfb" fill-rule="evenodd"/></svg>