<?xml version="1.0" standalone="no"?>
<!DOCTYPE svg PUBLIC "-//W3C//DTD SVG 20010904//EN"
 "http://www.w3.org/TR/2001/REC-SVG-20010904/DTD/svg10.dtd">
<svg version="1.0" xmlns="http://www.w3.org/2000/svg"
 width="400.000000pt" height="400.000000pt" viewBox="0 0 400.000000 400.000000"
 preserveAspectRatio="xMidYMid meet">
<metadata>
Created by potrace 1.16, written by Peter Selinger 2001-2019
</metadata>
<g transform="translate(0.000000,400.000000) scale(0.100000,-0.100000)"
fill="#000000" stroke="none">
<path d="M0 2000 l0 -2000 2000 0 2000 0 0 2000 0 2000 -2000 0 -2000 0 0
-2000z m2256 1279 c26 -52 29 -53 78 -34 15 7 17 4 13 -11 -15 -50 -29 -145
-22 -152 4 -4 22 11 40 32 32 39 33 39 45 17 10 -20 17 -22 56 -16 49 7 52 2
33 -54 -10 -28 -9 -34 7 -46 11 -7 17 -15 14 -18 -3 -3 -37 -31 -76 -64 -63
-52 -70 -62 -62 -82 5 -13 6 -26 3 -29 -3 -3 -35 0 -71 7 -37 6 -69 10 -72 7
-3 -3 -4 -37 -3 -76 2 -59 0 -70 -14 -70 -14 0 -15 10 -9 76 l7 77 -34 -6
c-19 -4 -54 -9 -78 -13 l-43 -7 6 30 c6 28 2 34 -66 88 -90 72 -85 67 -73 72
33 12 36 19 20 56 -23 55 -21 58 34 51 45 -6 49 -4 54 17 6 23 7 23 46 -16 23
-21 43 -37 45 -34 3 3 -1 36 -9 74 -22 105 -24 101 32 78 6 -2 24 18 40 46 15
28 29 51 30 51 2 0 14 -23 29 -51z m111 -701 c-4 -13 -105 -295 -226 -628
l-220 -605 -145 -3 c-80 -1 -146 0 -146 3 0 3 15 47 34 98 19 51 121 332 227
625 l193 532 144 0 144 0 -5 -22z m-807 -253 l0 -126 -67 -30 c-38 -16 -153
-69 -256 -116 -173 -79 -187 -88 -165 -98 12 -7 128 -54 256 -105 l232 -94 0
-124 c0 -104 -2 -123 -14 -119 -8 3 -200 88 -425 188 l-411 182 0 72 0 71 418
211 c229 116 420 211 425 212 4 0 7 -55 7 -124z m1718 -371 l-3 -76 -414 -184
c-227 -101 -415 -184 -417 -184 -2 0 -4 56 -4 124 l0 124 256 103 c247 100
254 104 227 117 -15 7 -129 59 -253 116 l-225 102 -3 127 -3 127 421 -210 421
-210 -3 -76z"/>
</g>
</svg>
