<?xml version="1.0" encoding="UTF-8" standalone="no"?>
<svg
   width="256.09201"
   height="195.52586"
   viewBox="0 0 256.09201 195.52586"
   version="1.1"
   id="svg1"
   sodipodi:docname="logo.svg"
   inkscape:version="1.3.2 (091e20e, 2023-11-25, custom)"
   xmlns:inkscape="http://www.inkscape.org/namespaces/inkscape"
   xmlns:sodipodi="http://sodipodi.sourceforge.net/DTD/sodipodi-0.dtd"
   xmlns="http://www.w3.org/2000/svg"
   xmlns:svg="http://www.w3.org/2000/svg">
  <defs
     id="defs1" />
  <sodipodi:namedview
     id="namedview1"
     pagecolor="#ffffff"
     bordercolor="#000000"
     borderopacity="0.25"
     inkscape:showpageshadow="2"
     inkscape:pageopacity="0.0"
     inkscape:pagecheckerboard="0"
     inkscape:deskcolor="#d1d1d1"
     inkscape:zoom="3.8656716"
     inkscape:cx="128.30888"
     inkscape:cy="88.600386"
     inkscape:window-width="1920"
     inkscape:window-height="991"
     inkscape:window-x="-9"
     inkscape:window-y="-9"
     inkscape:window-maximized="1"
     inkscape:current-layer="svg1" />
  <path
     d="m 147.905,3.9738596 c -2.354,4.845 -2.847,5.14 -5.879,3.517 -2.442,-1.307 -2.507,0.035 -0.397,8.1770004 2.23,8.606 0.564,10.257 -4.649,4.608 -2.798,-3.033 -3.087,-3.131 -4.326,-1.469 -1.074,1.441 -2.143,1.65 -5.611,1.095 -3.936,-0.629 -4.223,-0.53 -3.532,1.22 1.537,3.895 1.874,8.404 0.629,8.404 -2.07,0 -0.79,1.546 6.193,7.486 5.77,4.907 6.654,6.086 6.129,8.174 -0.608,2.424 -0.575,2.436 4.759,1.702 6.738,-0.927 11.836,-0.924 18.955,0.009 l 5.585,0.732 -0.421,-2.864 c -0.365,-2.492 0.297,-3.416 5.106,-7.127 7.425,-5.728 8.205,-6.733 6.663,-8.591 -0.93,-1.121 -0.959,-2.247 -0.122,-4.649 1.675,-4.804 1.481,-5.051 -3.395,-4.32 -3.043,0.457 -4.5,0.315 -4.5,-0.438 0,-1.975 -2.951,-1.186 -5.187,1.386 -3.491,4.015 -5.213,3.317 -4.317,-1.75 2.32,-13.1120004 2.307,-12.7150004 0.403,-11.6960004 -2.916,1.561 -3.765,1.128 -5.864,-2.986 -1.104,-2.163 -2.457,-4.21099995 -3.009,-4.55199995 -0.551,-0.34 -1.997,1.42899995 -3.213,3.93199995 m 2.382,54.0520004 c 0.02,1.65 0.244,2.204 0.498,1.231 0.254,-0.973 0.237,-2.323 -0.037,-3 -0.274,-0.677 -0.481,0.119 -0.461,1.769 m -14.071,15.75 c -0.455,1.237 -6.104,16.875 -12.554,34.75 -12.234,33.906 -15.59,43.15 -18.696,51.5 -1.023,2.75 -4.078,11.075 -6.788,18.5 -2.71,7.425 -5.236,14.287 -5.614,15.25 -0.633,1.616 0.383,1.75 13.253,1.75 h 13.939 l 1.066,-3.25 c 1.442,-4.397 7.36,-21.133 11.58,-32.75 1.898,-5.225 7.37,-20.3 12.16,-33.5 4.79,-13.2 9.108,-24.9 9.595,-26 1.319,-2.977 9.935,-27.153 9.935,-27.876 0,-0.343 -6.086,-0.624 -13.525,-0.624 -13.114,0 -13.55,0.068 -14.351,2.25 m -94.624,33.589 -41,20.661 -0.296,6.775 -0.296,6.774 8.796,4.067 c 4.838,2.237 10.821,4.882 13.296,5.877 2.475,0.995 7.425,3.145 11,4.777 10.922,4.985 37.904,17.018 46.782,20.862 l 3.282,1.422 -0.282,-11.581 -0.282,-11.581 -15.5,-6.442 c -8.525,-3.544 -16.4,-6.711 -17.5,-7.039 -1.1,-0.328 -3.8,-1.42 -6,-2.428 -2.2,-1.007 -5.8,-2.571 -8,-3.475 l -4,-1.644 2.361,-1.932 c 1.298,-1.063 2.917,-1.932 3.596,-1.932 0.68,0 4.919,-1.8 9.421,-4 4.502,-2.2 8.37,-4 8.596,-4 0.225,0 5.556,-2.427 11.845,-5.394 6.289,-2.966 12.391,-5.696 13.558,-6.067 2.008,-0.637 2.123,-1.322 2.123,-12.606 0,-6.563 -0.112,-11.893 -0.25,-11.844 -0.138,0.05 -18.7,9.387 -41.25,20.75 m 130.5,-9.773 c 0,9.965 0.934,13.928 3.285,13.94 0.668,0.004 2.565,0.71 4.215,1.571 1.65,0.861 6.375,3.06 10.5,4.887 7.308,3.238 17.921,8.091 28.943,13.236 l 5.444,2.542 -2.528,1.324 c -2.536,1.329 -22.108,9.429 -39.859,16.497 l -9.5,3.783 -0.282,11.577 c -0.155,6.367 -0.111,11.577 0.097,11.577 1.922,0 81.444,-36.318 82.408,-37.636 0.702,-0.96 1.277,-4.134 1.277,-7.053 v -5.306 l -40.995,-20.503 c -22.548,-11.276 -41.448,-20.502 -42,-20.502 -0.607,0 -1.005,3.99 -1.005,10.066"
     stroke="none"
     fill="#f9f8f7"
     fill-rule="evenodd"
     id="path1" />
</svg>
