<svg xmlns="http://www.w3.org/2000/svg" width="260" height="201" viewBox="0 0 260 201" version="1.1"><path d="M 149.813 6.448 C 147.459 11.293, 146.966 11.588, 143.934 9.965 C 141.492 8.658, 141.427 10, 143.537 18.142 C 145.767 26.748, 144.101 28.399, 138.888 22.750 C 136.090 19.717, 135.801 19.619, 134.562 21.281 C 133.488 22.722, 132.419 22.931, 128.951 22.376 C 125.015 21.747, 124.728 21.846, 125.419 23.596 C 126.956 27.491, 127.293 32, 126.048 32 C 123.978 32, 125.258 33.546, 132.241 39.486 C 138.011 44.393, 138.895 45.572, 138.370 47.660 C 137.762 50.084, 137.795 50.096, 143.129 49.362 C 149.867 48.435, 154.965 48.438, 162.084 49.371 L 167.669 50.103 167.248 47.239 C 166.883 44.747, 167.545 43.823, 172.354 40.112 C 179.779 34.384, 180.559 33.379, 179.017 31.521 C 178.087 30.400, 178.058 29.274, 178.895 26.872 C 180.570 22.068, 180.376 21.821, 175.500 22.552 C 172.457 23.009, 171 22.867, 171 22.114 C 171 20.139, 168.049 20.928, 165.813 23.500 C 162.322 27.515, 160.600 26.817, 161.496 21.750 C 163.816 8.638, 163.803 9.035, 161.899 10.054 C 158.983 11.615, 158.134 11.182, 156.035 7.068 C 154.931 4.905, 153.578 2.857, 153.026 2.516 C 152.475 2.176, 151.029 3.945, 149.813 6.448 M 152.195 60.500 C 152.215 62.150, 152.439 62.704, 152.693 61.731 C 152.947 60.758, 152.930 59.408, 152.656 58.731 C 152.382 58.054, 152.175 58.850, 152.195 60.500 M 138.124 76.250 C 137.669 77.487, 132.020 93.125, 125.570 111 C 113.336 144.906, 109.980 154.150, 106.874 162.500 C 105.851 165.250, 102.796 173.575, 100.086 181 C 97.376 188.425, 94.850 195.287, 94.472 196.250 C 93.839 197.866, 94.855 198, 107.725 198 L 121.664 198 122.730 194.750 C 124.172 190.353, 130.090 173.617, 134.310 162 C 136.208 156.775, 141.680 141.700, 146.470 128.500 C 151.260 115.300, 155.578 103.600, 156.065 102.500 C 157.384 99.523, 166 75.347, 166 74.624 C 166 74.281, 159.914 74, 152.475 74 C 139.361 74, 138.925 74.068, 138.124 76.250 M 43.500 109.839 L 2.500 130.500 2.204 137.275 L 1.908 144.049 10.704 148.116 C 15.542 150.353, 21.525 152.998, 24 153.993 C 26.475 154.988, 31.425 157.138, 35 158.770 C 45.922 163.755, 72.904 175.788, 81.782 179.632 L 85.064 181.054 84.782 169.473 L 84.500 157.892 69 151.450 C 60.475 147.906, 52.600 144.739, 51.500 144.411 C 50.400 144.083, 47.700 142.991, 45.500 141.983 C 43.300 140.976, 39.700 139.412, 37.500 138.508 L 33.500 136.864 35.861 134.932 C 37.159 133.869, 38.778 133, 39.457 133 C 40.137 133, 44.376 131.200, 48.878 129 C 53.380 126.800, 57.248 125, 57.474 125 C 57.699 125, 63.030 122.573, 69.319 119.606 C 75.608 116.640, 81.710 113.910, 82.877 113.539 C 84.885 112.902, 85 112.217, 85 100.933 C 85 94.370, 84.888 89.040, 84.750 89.089 C 84.612 89.139, 66.050 98.476, 43.500 109.839 M 174 100.066 C 174 110.031, 174.934 113.994, 177.285 114.006 C 177.953 114.010, 179.850 114.716, 181.500 115.577 C 183.150 116.438, 187.875 118.637, 192 120.464 C 199.308 123.702, 209.921 128.555, 220.943 133.700 L 226.387 136.242 223.859 137.566 C 221.323 138.895, 201.751 146.995, 184 154.063 L 174.500 157.846 174.218 169.423 C 174.063 175.790, 174.107 181, 174.315 181 C 176.237 181, 255.759 144.682, 256.723 143.364 C 257.425 142.404, 258 139.230, 258 136.311 L 258 131.005 217.005 110.502 C 194.457 99.226, 175.557 90, 175.005 90 C 174.398 90, 174 93.990, 174 100.066" stroke="none" fill="#f9f8f7" fill-rule="evenodd"/></svg>