<svg xmlns="http://www.w3.org/2000/svg" width="958" height="694" viewBox="0 0 958 694" version="1.1"><path d="M 176.398 77.731 C 176.800 78.133, 314.912 78.471, 483.314 78.481 C 651.717 78.492, 787.475 78.196, 785 77.824 C 778.873 76.904, 175.478 76.812, 176.398 77.731 M 808.357 86.272 C 826.213 95.881, 839.227 113.670, 843.425 134.208 C 844.826 141.065, 845 163.057, 845 333.500 C 845 502.045, 844.815 525.980, 843.461 532.534 C 837.685 560.501, 817.408 583.045, 792.262 589.458 C 786.624 590.895, 756.351 591.045, 477.262 591.009 C 150.253 590.967, 166.642 591.188, 154.298 586.663 C 144.854 583.201, 133.227 574.048, 125.508 564 C 119.985 556.809, 117.528 551.852, 114.767 542.323 L 112.500 534.500 112.500 336 L 112.500 137.500 115.259 128.703 C 118.746 117.586, 122.576 109.990, 128.498 102.445 L 133.163 96.500 128.547 101.385 C 122.761 107.507, 117.037 117.281, 113.564 126.968 C 107.866 142.856, 108.012 137.303, 108.006 338.581 C 108 515.645, 108.082 524.115, 109.888 534.130 C 115.554 565.552, 133.689 586.803, 163 596.369 L 169.500 598.490 471.500 598.785 C 671.567 598.980, 776.738 598.735, 783.094 598.061 C 798.704 596.404, 811.664 590.294, 823.359 579.078 C 835.778 567.168, 842.839 554.266, 846.558 536.685 C 848.728 526.430, 848.720 149.513, 846.550 139.315 C 842.459 120.089, 834.291 105.513, 821.303 94.263 C 815.923 89.602, 803.525 81.971, 801.417 82.022 C 800.913 82.035, 804.035 83.947, 808.357 86.272 M 186.151 144.886 C 184.666 145.827, 193.955 151.558, 228.500 171.013 C 258.215 187.748, 278.062 199.061, 282 201.508 C 285.804 203.871, 292.374 207.581, 301 212.235 C 304.025 213.868, 307.210 215.832, 308.079 216.602 C 308.947 217.371, 310.152 218, 310.757 218 C 311.362 218, 312.452 218.592, 313.179 219.315 C 313.905 220.038, 317.200 222.104, 320.500 223.905 C 323.800 225.706, 327.210 227.814, 328.079 228.590 C 328.947 229.365, 330.152 230, 330.757 230 C 331.362 230, 332.452 230.592, 333.179 231.315 C 333.905 232.038, 337.200 234.104, 340.500 235.905 C 343.800 237.706, 347.175 239.762, 348 240.473 C 348.825 241.184, 353.550 244.100, 358.500 246.953 C 369.240 253.143, 384.325 262.165, 388.500 264.894 C 393.225 267.983, 467.894 312.919, 473.858 316.263 C 478.962 319.125, 479.365 319.196, 482.358 317.762 C 485.226 316.388, 587.681 256.675, 627 233.462 C 648.785 220.601, 702.211 189.693, 728.500 174.743 C 768.012 152.273, 775.849 147.182, 774.438 144.899 C 773.721 143.740, 187.980 143.726, 186.151 144.886 M 221.879 153.454 C 221.613 153.720, 219.922 154.050, 218.122 154.188 C 216.321 154.325, 214.652 154.754, 214.412 155.142 C 213.341 156.876, 233.113 169.972, 268.500 190.967 C 292.944 205.470, 350.429 239.676, 382 258.504 C 398.775 268.508, 416.325 278.943, 421 281.694 C 425.675 284.444, 440.210 293.063, 453.300 300.847 C 466.389 308.631, 477.469 315, 477.921 315 C 478.869 315, 504.588 300.442, 523 289.483 C 528.329 286.311, 549.077 274.187, 567.500 263.479 C 572.450 260.602, 583.025 254.428, 591 249.760 C 598.975 245.093, 623.500 230.796, 645.500 217.991 C 683.537 195.852, 718.391 175.321, 726 170.573 C 736.139 164.247, 747 156.717, 747 156.014 C 747 155.574, 746.212 154.828, 745.250 154.357 C 743.456 153.479, 222.753 152.581, 221.879 153.454 M 166.956 206.683 C 166.932 207.132, 166.932 277.617, 166.956 363.316 L 166.999 519.133 169.552 522.479 C 170.956 524.320, 172.829 526.104, 173.714 526.444 C 175.945 527.300, 783.079 527.313, 785.278 526.457 C 786.256 526.076, 787.461 525.008, 787.956 524.083 C 789.041 522.055, 789.652 211.863, 788.574 210.119 C 787.566 208.488, 785.156 209.381, 775.591 214.929 C 764.230 221.518, 683.644 268.424, 626 302 C 481.593 386.111, 477.929 388.199, 475.700 387.632 C 474.490 387.324, 463.600 381.154, 451.500 373.921 C 439.400 366.688, 416.225 352.880, 400 343.238 C 294.356 280.453, 184.557 215.101, 174.222 208.855 C 170.728 206.744, 167.012 205.633, 166.956 206.683 M 176.542 223.931 C 174.446 227.323, 173.943 262.139, 174.210 385.200 C 174.438 490.340, 174.766 519.167, 175.747 520.147 C 176.433 520.833, 179.583 521.717, 182.747 522.113 C 190.920 523.133, 769.581 523.090, 774.872 522.068 C 777.276 521.604, 779.632 520.611, 780.106 519.862 C 781.355 517.891, 781.207 242.204, 779.952 233.522 C 779.397 229.684, 778.512 226.112, 777.985 225.585 C 776.625 224.225, 761.310 232.129, 730.500 250.091 C 716.200 258.428, 699.100 268.386, 692.500 272.220 C 685.900 276.053, 675.100 282.352, 668.500 286.216 C 661.900 290.080, 654.492 294.380, 652.039 295.771 C 649.585 297.162, 643.565 300.707, 638.661 303.650 C 633.757 306.592, 629.583 309, 629.386 309 C 629.189 309, 625.309 311.185, 620.764 313.856 C 602.794 324.414, 587.890 333.098, 575 340.520 C 567.575 344.796, 552.500 353.566, 541.500 360.009 C 515.393 375.300, 488.910 390.495, 483.992 393.004 C 477.640 396.245, 474.619 395.648, 463 388.854 C 445.945 378.882, 406.122 355.217, 366.190 331.324 C 345.670 319.046, 328.664 309, 328.400 309 C 328.135 309, 326.700 308.157, 325.210 307.126 C 323.719 306.096, 309 297.248, 292.500 287.464 C 265.923 271.706, 251.277 263.010, 209.500 238.182 C 188.159 225.499, 178.227 221.205, 176.542 223.931" stroke="none" fill="#c1c1c8" fill-rule="evenodd"/><path d="M 166.500 79.126 C 160.024 79.970, 151.748 83.143, 145.341 87.239 C 130.810 96.529, 121.193 109.784, 115.259 128.703 L 112.500 137.500 112.500 336 L 112.500 534.500 114.767 542.323 C 117.528 551.852, 119.985 556.809, 125.508 564 C 133.227 574.048, 144.854 583.201, 154.298 586.663 C 166.642 591.188, 150.253 590.967, 477.262 591.009 C 756.351 591.045, 786.624 590.895, 792.262 589.458 C 817.408 583.045, 837.685 560.501, 843.461 532.534 C 844.815 525.980, 845 502.045, 845 333.500 C 845 163.057, 844.826 141.065, 843.425 134.208 C 838.922 112.179, 825.562 94.826, 805.626 85.116 C 800.057 82.403, 793.925 79.848, 792 79.437 C 787.703 78.521, 173.488 78.215, 166.500 79.126 M 186.151 144.886 C 184.666 145.827, 193.955 151.558, 228.500 171.013 C 258.215 187.748, 278.062 199.061, 282 201.508 C 285.804 203.871, 292.374 207.581, 301 212.235 C 304.025 213.868, 307.210 215.832, 308.079 216.602 C 308.947 217.371, 310.152 218, 310.757 218 C 311.362 218, 312.452 218.592, 313.179 219.315 C 313.905 220.038, 317.200 222.104, 320.500 223.905 C 323.800 225.706, 327.210 227.814, 328.079 228.590 C 328.947 229.365, 330.152 230, 330.757 230 C 331.362 230, 332.452 230.592, 333.179 231.315 C 333.905 232.038, 337.200 234.104, 340.500 235.905 C 343.800 237.706, 347.175 239.762, 348 240.473 C 348.825 241.184, 353.550 244.100, 358.500 246.953 C 369.240 253.143, 384.325 262.165, 388.500 264.894 C 393.225 267.983, 467.894 312.919, 473.858 316.263 C 478.962 319.125, 479.365 319.196, 482.358 317.762 C 485.226 316.388, 587.681 256.675, 627 233.462 C 648.785 220.601, 702.211 189.693, 728.500 174.743 C 768.012 152.273, 775.849 147.182, 774.438 144.899 C 773.721 143.740, 187.980 143.726, 186.151 144.886 M 166.956 206.683 C 166.932 207.132, 166.932 277.617, 166.956 363.316 L 166.999 519.133 169.552 522.479 C 170.956 524.320, 172.829 526.104, 173.714 526.444 C 175.945 527.300, 783.079 527.313, 785.278 526.457 C 786.256 526.076, 787.461 525.008, 787.956 524.083 C 789.041 522.055, 789.652 211.863, 788.574 210.119 C 787.566 208.488, 785.156 209.381, 775.591 214.929 C 764.230 221.518, 683.644 268.424, 626 302 C 481.593 386.111, 477.929 388.199, 475.700 387.632 C 474.490 387.324, 463.600 381.154, 451.500 373.921 C 439.400 366.688, 416.225 352.880, 400 343.238 C 294.356 280.453, 184.557 215.101, 174.222 208.855 C 170.728 206.744, 167.012 205.633, 166.956 206.683" stroke="none" fill="#f8f8f9" fill-rule="evenodd"/></svg>