<?xml version="1.0" encoding="UTF-8" standalone="no"?>
<svg
   height="20"
   viewBox="0 -960 800 800"
   width="20"
   fill="#e8eaed"
   version="1.1"
   id="svg1"
   sodipodi:docname="progress_activity_22dp_E8EAED_FILL0_wght400_GRAD0_opsz24.svg"
   inkscape:version="1.3.2 (091e20e, 2023-11-25, custom)"
   xmlns:inkscape="http://www.inkscape.org/namespaces/inkscape"
   xmlns:sodipodi="http://sodipodi.sourceforge.net/DTD/sodipodi-0.dtd"
   xmlns="http://www.w3.org/2000/svg"
   xmlns:svg="http://www.w3.org/2000/svg">
  <defs
     id="defs1" />
  <sodipodi:namedview
     id="namedview1"
     pagecolor="#ffffff"
     bordercolor="#000000"
     borderopacity="0.25"
     inkscape:showpageshadow="2"
     inkscape:pageopacity="0.0"
     inkscape:pagecheckerboard="0"
     inkscape:deskcolor="#d1d1d1"
     inkscape:zoom="32.375"
     inkscape:cx="9.976834"
     inkscape:cy="9.992278"
     inkscape:window-width="1920"
     inkscape:window-height="991"
     inkscape:window-x="-9"
     inkscape:window-y="-9"
     inkscape:window-maximized="1"
     inkscape:current-layer="svg1" />
  <path
     d="m 400,-160 q -82,0 -155,-31.5 -73,-31.5 -127.5,-86 Q 63,-332 31.5,-405 0,-478 0,-560 q 0,-83 31.5,-155.5 31.5,-72.5 86,-127 54.5,-54.5 127.5,-86 73,-31.5 155,-31.5 17,0 28.5,11.5 11.5,11.5 11.5,28.5 0,17 -11.5,28.5 Q 417,-880 400,-880 267,-880 173.5,-786.5 80,-693 80,-560 q 0,133 93.5,226.5 93.5,93.5 226.5,93.5 133,0 226.5,-93.5 Q 720,-427 720,-560 q 0,-17 11.5,-28.5 11.5,-11.5 28.5,-11.5 17,0 28.5,11.5 11.5,11.5 11.5,28.5 0,82 -31.5,155 -31.5,73 -86,127.5 -54.5,54.5 -127,86 Q 483,-160 400,-160 Z"
     id="path1" />
</svg>
