<svg xmlns="http://www.w3.org/2000/svg" width="256" height="256" viewBox="0 0 256 256" version="1.1"><path d="M 152.929 41.306 C 142.752 44.187, 135.401 50.472, 130.461 60.517 C 127.803 65.920, 125.045 77.320, 125.017 83.017 L 125 86.534 116.250 85.873 C 105.415 85.053, 99.694 83.745, 90.037 79.879 C 76.943 74.637, 68.112 68.478, 54.775 55.283 L 46.049 46.651 43.380 52.481 C 37.061 66.284, 39.677 80.215, 51.226 94.263 L 55.141 99.027 49.925 96.970 C 47.055 95.839, 43.903 94.483, 42.920 93.957 C 39.889 92.335, 39.692 92.783, 40.291 99.926 C 41.372 112.831, 48.486 123.173, 61.298 130.471 L 67.500 134.003 60.252 133.358 L 53.004 132.713 54.141 135.974 C 56.215 141.924, 63.367 151.411, 68.227 154.659 C 71.015 156.522, 76.050 158.549, 80.498 159.597 C 84.647 160.575, 87.886 161.842, 87.696 162.411 C 87.506 162.981, 84.162 165.162, 80.265 167.258 C 71.737 171.846, 57.414 175.643, 43.810 176.923 C 38.306 177.441, 33.580 178.087, 33.308 178.359 C 32.631 179.036, 47.862 186.185, 56.766 189.370 C 80.425 197.832, 108.201 198.254, 131.008 190.497 C 139.331 187.666, 150.965 181.518, 159 175.703 C 185.468 156.548, 203 121.647, 203 88.114 L 203 78.042 213 69.352 C 221.735 61.762, 224.828 57.970, 222.250 58.012 C 221.838 58.019, 217.453 59.144, 212.507 60.512 C 207.561 61.881, 203.382 63, 203.220 63 C 203.059 63, 206.318 59.121, 210.463 54.379 C 217.100 46.788, 219.401 43, 217.376 43 C 217.033 43, 213.197 44.605, 208.852 46.567 C 197.262 51.800, 195.673 51.868, 187.004 47.502 C 182.960 45.466, 177.593 43.171, 175.076 42.402 C 168.239 40.314, 158.189 39.817, 152.929 41.306" stroke="none" fill="#fffcfc" fill-rule="evenodd"/><path d="" stroke="none" fill="#fcfcfc" fill-rule="evenodd"/></svg>